<svg width="33" height="33" viewBox="0 0 33 33" fill="none" xmlns="http://www.w3.org/2000/svg">
<g filter="url(#filter0_d_67_1381)">
<rect x="4" y="4" width="25" height="25" rx="12.5" fill="#FF961F"/>
<path d="M21.9993 10.3722C21.9993 10.37 22 10.368 22 10.3659C22 10.2689 21.9589 10.1759 21.8857 10.1073C21.8125 10.0387 21.7133 10.0001 21.6097 10H14.5074V10.0015L10.0004 14.2224H10V21.6343H10.0004V21.6344C10.0006 21.7314 10.0418 21.8244 10.1151 21.8929C10.1884 21.9614 10.2877 22 10.3913 22H21.61C21.699 21.9999 21.7853 21.9712 21.8545 21.9189C21.9237 21.8665 21.9718 21.7936 21.9907 21.7122H21.9993V21.6404C21.9993 21.6384 21.9999 21.6365 21.9999 21.6345C21.9999 21.6325 21.9993 21.6306 21.9993 21.6286V10.3722ZM18.5215 11.333H20.5759V14.6259L17.9866 12.2009L18.5215 11.333ZM14.509 14.5881V14.588C14.6123 14.5876 14.7112 14.549 14.7841 14.4805C14.8571 14.412 14.898 14.3192 14.8981 14.2225V11.333H17.6983L13.8143 17.6331L11.4234 15.394V14.5881H14.509ZM11.4234 20.6672V16.3384L13.4452 18.2317L11.9439 20.6672H11.4234ZM12.7671 20.6672L17.6175 12.7996L20.5761 15.5702V20.6672H12.7671Z" fill="white"/>
<path d="M17.4998 16C16.6711 16 16 16.6382 16 17.4249C16 17.74 16.1089 18.0303 16.2911 18.2661L17.2587 19.8584C17.2646 19.8695 17.2708 19.8804 17.2783 19.8905L17.2803 19.8937L17.2808 19.8935C17.3047 19.9251 17.3359 19.9511 17.372 19.9695C17.4081 19.9879 17.4482 19.9983 17.4891 19.9998C17.5301 20.0013 17.5708 19.9939 17.6083 19.9782C17.6458 19.9625 17.679 19.9388 17.7055 19.9091L17.708 19.9104L17.7173 19.8951C17.7318 19.877 17.7439 19.8572 17.7531 19.8362L18.7019 18.2749C18.8954 18.0296 19 17.7314 19 17.4248C18.9996 16.6382 18.3285 16 17.4998 16ZM17.485 18.1473C17.3879 18.1473 17.2918 18.1292 17.2021 18.0939C17.1125 18.0587 17.031 18.007 16.9624 17.9418C16.8937 17.8766 16.8393 17.7992 16.8021 17.714C16.765 17.6288 16.7459 17.5375 16.7459 17.4453C16.7459 17.3065 16.7892 17.1707 16.8704 17.0552C16.9516 16.9397 17.067 16.8497 17.2021 16.7966C17.3371 16.7434 17.4857 16.7295 17.6291 16.7566C17.7724 16.7837 17.9041 16.8505 18.0075 16.9487C18.1109 17.0469 18.1813 17.172 18.2098 17.3082C18.2383 17.4444 18.2237 17.5856 18.1678 17.7139C18.1118 17.8422 18.0171 17.9518 17.8956 18.029C17.774 18.1061 17.6311 18.1473 17.485 18.1473Z" fill="white"/>
</g>
<defs>
<filter id="filter0_d_67_1381" x="0" y="0" width="33" height="33" filterUnits="userSpaceOnUse" color-interpolation-filters="sRGB">
<feFlood flood-opacity="0" result="BackgroundImageFix"/>
<feColorMatrix in="SourceAlpha" type="matrix" values="0 0 0 0 0 0 0 0 0 0 0 0 0 0 0 0 0 0 127 0" result="hardAlpha"/>
<feOffset/>
<feGaussianBlur stdDeviation="2"/>
<feComposite in2="hardAlpha" operator="out"/>
<feColorMatrix type="matrix" values="0 0 0 0 0 0 0 0 0 0 0 0 0 0 0 0 0 0 0.25 0"/>
<feBlend mode="normal" in2="BackgroundImageFix" result="effect1_dropShadow_67_1381"/>
<feBlend mode="normal" in="SourceGraphic" in2="effect1_dropShadow_67_1381" result="shape"/>
</filter>
</defs>
</svg>
